# xmcd
#
# Track frame offsets: 
#        300
#        13356
#        25048
#        42722
#        52726
#        65728
#        81287
#        91796
#        97404
#        114699
#        132388
#        150707
#        162117
#        185424
#
# Disc length: 2673 seconds
#
# Revision: 2
# Processed by: cddbd v1.5.2PL0 Copyright (c) Steve Scherf et al.
# Submitted via: ExactAudioCopy v1.0b1
#
DISCID=c00a6d0e
DTITLE=Carolyn Wonderland - Alcohol and Salvation
DYEAR=2001
DGENRE=General Mainstream Rock
TTITLE0=I'm Innocent
TTITLE1=I'm Out Sick
TTITLE2=How Many Crowes
TTITLE3=Brick Wall
TTITLE4=The Only Girl You Know
TTITLE5=Worst Day Of My Life
TTITLE6=Bad Girl
TTITLE7=Beer
TTITLE8=Pieces Of A Postcard
TTITLE9=Feed Me To The Lions
TTITLE10=Sober
TTITLE11=I'm The Man
TTITLE12=Gospel Song
TTITLE13=I Don't Wanna Fall For You
EXTD=YEAR: 2001 ID3G: 0
EXTT0=
EXTT1=
EXTT2=
EXTT3=
EXTT4=
EXTT5=
EXTT6=
EXTT7=
EXTT8=
EXTT9=
EXTT10=
EXTT11=
EXTT12=
EXTT13=
PLAYORDER=
